<svg xmlns="http://www.w3.org/2000/svg" xmlns:xlink="http://www.w3.org/1999/xlink" xml:space="preserve" version="1.1" style="shape-rendering:geometricPrecision;text-rendering:geometricPrecision;image-rendering:optimizeQuality;" viewBox="0 0 846.66 1058.325" x="0px" y="0px" fill-rule="evenodd" clip-rule="evenodd"><defs><style type="text/css">
   
    .fil0 {fill:black}
   
  </style></defs><g><path class="fil0" d="M571.41 291.84c48.12,0 87.17,39.03 87.17,87.17 0,24.07 -9.77,45.85 -25.54,61.62 -0.23,0.23 55.31,41.94 61.68,49.17 12.83,14.57 17.74,29.3 17.74,51.42 0,24.83 8.35,50.97 15.49,73.32 13.31,41.62 10.08,51.52 10.08,93.92l-629.74 0 0 -44.58 65.11 0 35.47 -113.69 32.9 -27.8 -44.88 -118.32 35.78 -13.47 89.21 235.2 -35.79 13.47 -35.76 -94.31 -17.59 12 5.52 106.92 138.06 0c0,-21.94 6.78,-32.41 31.25,-37.39 8.74,-1.79 20.05,-3.18 32.26,-4.66 80.06,-9.81 84.42,-9.42 112.63,-75.24 7.86,-18.31 13.95,-37.61 13.95,-53.81 0,-10.96 -1.4,-19.92 -3.26,-27 -20.77,-1.95 -39.43,-11.2 -53.38,-25.15 -33.85,-33.85 -33.85,-89.41 0,-123.27 15.77,-15.77 37.57,-25.52 61.64,-25.52zm-343.27 -153.65l91.17 95.22 -91.17 95.21 -31.69 -30.49 61.98 -64.72 -61.98 -64.73 31.69 -30.49zm97.76 132.88l105.94 0 0 44.08 -105.94 0 0 -44.08z"/></g><text x="0" y="861.66" fill="#000000" font-size="5px" font-weight="bold" font-family="'Helvetica Neue', Helvetica, Arial-Unicode, Arial, Sans-serif">Created by angelina</text><text x="0" y="866.66" fill="#000000" font-size="5px" font-weight="bold" font-family="'Helvetica Neue', Helvetica, Arial-Unicode, Arial, Sans-serif">from the Noun Project</text></svg>